<svg width="24" height="24" viewBox="0 0 24 24" fill="none" xmlns="http://www.w3.org/2000/svg">
<path fill-rule="evenodd" clip-rule="evenodd" d="M15.894 3.55281L17.618 6.99981H20C20.5304 6.99981 21.0391 7.21052 21.4142 7.58559C21.7893 7.96067 22 8.46938 22 8.99981V9.99981C22.0001 10.381 21.8912 10.7543 21.6862 11.0756C21.4812 11.397 21.1887 11.6531 20.843 11.8138L19.324 18.6508C19.1759 19.317 18.8051 19.9128 18.2728 20.3398C17.7405 20.7669 17.0785 20.9997 16.396 20.9998H7.604C6.92141 20.9996 6.25929 20.7667 5.72695 20.3395C5.19461 19.9122 4.82389 19.3162 4.676 18.6498L3.156 11.8138C2.81051 11.653 2.51817 11.3968 2.31337 11.0754C2.10857 10.7541 1.99985 10.3809 2 9.99981V8.99981C2 8.46938 2.21071 7.96067 2.58579 7.58559C2.96086 7.21052 3.46957 6.99981 4 6.99981H6.382L8.106 3.55281C8.22934 3.32408 8.43688 3.15235 8.68465 3.07399C8.93242 2.99564 9.20096 3.01681 9.43339 3.13302C9.66582 3.24924 9.84389 3.45137 9.92986 3.6966C10.0158 3.94183 10.003 4.2109 9.894 4.44681L8.618 6.99981H15.382L14.106 4.44681C14.0424 4.32893 14.0032 4.19949 13.9906 4.06616C13.978 3.93283 13.9923 3.79833 14.0327 3.67064C14.0731 3.54295 14.1387 3.42467 14.2257 3.32282C14.3126 3.22098 14.4192 3.13763 14.539 3.07774C14.6588 3.01785 14.7893 2.98263 14.923 2.97417C15.0567 2.9657 15.1906 2.98418 15.317 3.02848C15.4434 3.07279 15.5596 3.14204 15.6587 3.2321C15.7578 3.32217 15.8378 3.43123 15.894 3.55281ZM18.754 11.9998H5.246L6.627 18.2168C6.67636 18.4389 6.79997 18.6375 6.97741 18.7798C7.15484 18.9222 7.37552 18.9998 7.603 18.9998H16.395C16.6225 18.9998 16.8432 18.9222 17.0206 18.7798C17.198 18.6375 17.3216 18.4389 17.371 18.2168L18.754 11.9998ZM20 8.99981H4V9.99981H20V8.99981Z" fill="#57534E"/>
</svg>
